<?xml version="1.0" encoding="utf-8"?>
<!-- Generator: Adobe Illustrator 25.2.1, SVG Export Plug-In . SVG Version: 6.00 Build 0)  -->
<svg version="1.1" id="Layer_1" xmlns:svgjs="http://svgjs.com/svgjs"
	 xmlns="http://www.w3.org/2000/svg" xmlns:xlink="http://www.w3.org/1999/xlink" x="0px" y="0px" viewBox="0 0 10 10"
	 style="enable-background:new 0 0 10 10;" xml:space="preserve">
<style type="text/css">
	.st0{fill:#5F90DB;}
</style>
<g>
	<g>
		<g>
			<path class="st0" d="M9.31,0.69C8.4-0.23,6.91-0.23,6,0.69L4.04,2.65c-0.95,0.95-0.86,2.46,0,3.31c0.14,0.14,0.3,0.26,0.47,0.36
				l0.36-0.36C5.1,5.73,5.02,5.45,5.02,5.25c-0.05-0.04-0.1-0.08-0.15-0.12c-0.44-0.44-0.46-1.2,0-1.66
				c0.07-0.07,1.92-1.92,1.96-1.96c0.46-0.46,1.2-0.46,1.66,0c0.46,0.46,0.46,1.2,0,1.66L7.19,4.47c0.04,0.21,0.26,0.7,0.15,1.51
				c0.01-0.01,0.01-0.01,0.02-0.01L9.31,4C10.23,3.09,10.23,1.6,9.31,0.69z"/>
		</g>
	</g>
	<g>
		<g>
			<path class="st0" d="M6.11,3.89c-0.14-0.14-0.3-0.26-0.47-0.36L5.28,3.89C5.05,4.12,5.13,4.4,5.14,4.59
				c0.05,0.04,0.1,0.08,0.15,0.12c0.44,0.44,0.46,1.2,0,1.66C5.21,6.44,3.21,8.44,3.17,8.48c-0.46,0.46-1.2,0.46-1.66,0
				c-0.46-0.46-0.46-1.2,0-1.66l1.45-1.45C2.92,5.17,2.7,4.68,2.82,3.87C2.81,3.88,2.8,3.88,2.8,3.89L0.69,6
				c-0.92,0.92-0.92,2.4,0,3.31c0.92,0.92,2.4,0.92,3.31,0L6.11,7.2C7.04,6.27,6.99,4.77,6.11,3.89z"/>
		</g>
	</g>
</g>
</svg>
