<?xml version="1.0" encoding="utf-8"?>
<!-- Generator: Adobe Illustrator 25.2.1, SVG Export Plug-In . SVG Version: 6.00 Build 0)  -->
<svg version="1.1" id="Layer_1" xmlns="http://www.w3.org/2000/svg" xmlns:xlink="http://www.w3.org/1999/xlink" x="0px" y="0px"
	 viewBox="0 0 32 32" style="enable-background:new 0 0 32 32;" xml:space="preserve">
<style type="text/css">
	.st0{fill:#33566B;}
	.st1{fill:#5298C9;}
	.st2{fill:#A3D8FF;}
	.st3{fill:#85C0EB;}
</style>
<g>
	<g>
		<g>
			<g>
				<polygon class="st0" points="22.05,12.58 16,9.09 9.96,12.58 16,16.07 				"/>
			</g>
			<g>
				<polygon class="st0" points="9.96,12.58 9.96,19.56 16,23.05 16,16.07 				"/>
			</g>
			<g>
				<polygon class="st0" points="22.05,12.58 16,16.07 16,23.05 22.05,19.56 				"/>
			</g>
			<g>
				<polygon class="st0" points="9.96,3.74 9.96,10.72 16,14.21 16,7.23 				"/>
			</g>
			<g>
				<polygon class="st0" points="22.05,3.74 16,7.23 16,14.21 22.05,10.72 				"/>
			</g>
			<g>
				<polygon class="st0" points="29.47,16.93 23.43,13.44 17.38,16.93 23.43,20.42 				"/>
			</g>
			<g>
				<polygon class="st0" points="17.38,16.93 17.38,23.91 23.43,27.4 23.43,20.42 				"/>
			</g>
			<g>
				<polygon class="st0" points="17.38,8.09 17.38,15.07 23.43,18.56 23.43,11.58 				"/>
			</g>
			<g>
				<polygon class="st0" points="14.62,16.93 8.57,13.44 2.53,16.93 8.57,20.42 				"/>
			</g>
			<g>
				<polygon class="st0" points="14.62,16.93 8.57,20.42 8.57,27.4 14.62,23.91 				"/>
			</g>
			<g>
				<polygon class="st0" points="14.62,8.09 8.57,11.58 8.57,18.56 14.62,15.07 				"/>
			</g>
			<g>
				<polygon class="st0" points="22.04,21.28 16,17.79 9.95,21.28 16,24.77 				"/>
			</g>
		</g>
	</g>
	<g>
		<g>
			<g>
				<polygon class="st1" points="2.53,16.93 2.53,23.91 8.57,27.4 8.57,20.42 				"/>
			</g>
			<g>
				<polygon class="st1" points="2.53,8.09 2.53,15.07 8.57,18.56 8.57,11.58 				"/>
			</g>
			<g>
				<polygon class="st1" points="9.95,21.28 9.95,28.26 16,31.75 16,24.77 				"/>
			</g>
			<g>
				<polygon class="st1" points="9.95,12.44 9.95,19.42 16,22.91 16,15.93 				"/>
			</g>
			<g>
				<polygon class="st1" points="11.96,20.54 11.96,22.51 13.67,23.5 13.67,21.52 				"/>
			</g>
			<g>
				<polygon class="st1" points="8.38,22.91 8.38,24.88 10.09,25.87 10.09,23.9 				"/>
			</g>
			<g>
				<polygon class="st1" points="4.63,16.19 4.63,18.17 6.34,19.15 6.34,17.18 				"/>
			</g>
			<g>
				<polygon class="st1" points="8.38,14.21 8.38,16.18 10.09,17.17 10.09,15.2 				"/>
			</g>
		</g>
	</g>
	<g>
		<g>
			<g>
				<polygon class="st2" points="29.47,16.93 23.43,20.42 23.43,27.4 29.47,23.91 				"/>
			</g>
			<g>
				<polygon class="st2" points="29.47,8.09 23.43,11.58 23.43,18.56 29.47,15.07 				"/>
			</g>
			<g>
				<polygon class="st2" points="22.04,21.28 16,24.77 16,31.75 22.04,28.26 				"/>
			</g>
			<g>
				<polygon class="st2" points="22.04,12.44 16,15.93 16,22.91 22.04,19.42 				"/>
			</g>
			<g>
				<polygon class="st2" points="20.05,20.54 20.05,22.51 18.34,23.5 18.34,21.52 				"/>
			</g>
			<g>
				<polygon class="st2" points="23.62,22.91 23.62,24.88 21.91,25.87 21.91,23.9 				"/>
			</g>
			<g>
				<polygon class="st2" points="23.62,14.21 23.62,16.18 21.91,17.17 21.91,15.2 				"/>
			</g>
			<g>
				<polygon class="st2" points="27.37,16.19 27.37,18.17 25.66,19.15 25.66,17.18 				"/>
			</g>
		</g>
	</g>
	<g>
		<g>
			<g>
				<polygon class="st3" points="22.05,3.74 16,0.25 9.96,3.74 16,7.23 				"/>
			</g>
			<g>
				<polygon class="st3" points="29.47,8.09 23.43,4.6 17.38,8.09 23.43,11.58 				"/>
			</g>
			<g>
				<polygon class="st3" points="14.62,8.09 8.57,4.6 2.53,8.09 8.57,11.58 				"/>
			</g>
			<g>
				<polygon class="st3" points="22.04,12.44 16,8.95 9.95,12.44 16,15.93 				"/>
			</g>
			<g>
				<polygon class="st3" points="13.79,5.87 12.18,4.94 10.58,5.87 12.18,6.79 				"/>
			</g>
			<g>
				<polygon class="st3" points="13.79,10.34 12.18,9.41 10.58,10.34 12.18,11.26 				"/>
			</g>
			<g>
				<polygon class="st3" points="18.11,5.87 19.71,4.94 21.32,5.87 19.71,6.79 				"/>
			</g>
			<g>
				<polygon class="st3" points="18.11,10.34 19.71,9.41 21.32,10.34 19.71,11.26 				"/>
			</g>
		</g>
	</g>
</g>
</svg>
